<mxfile host="app.diagrams.net" agent="Mozilla/5.0 (Linux; Android 10; K) AppleWebKit/537.36 (KHTML, like Gecko) Chrome/135.0.0.0 Mobile Safari/537.36" version="26.2.14">
  <diagram name="Halaman-1" id="hn0tTHW4iUZhrvFI1rwu">
    <mxGraphModel dx="781" dy="762" grid="0" gridSize="10" guides="1" tooltips="1" connect="1" arrows="1" fold="1" page="0" pageScale="1" pageWidth="827" pageHeight="1169" math="0" shadow="0">
      <root>
        <mxCell id="0" />
        <mxCell id="1" parent="0" />
        <mxCell id="C4AMaPXMwdx1v8CpoTr9-1" value="" style="whiteSpace=wrap;html=1;labelBackgroundColor=none;fillColor=#fff2cc;strokeColor=#d6b656;" parent="1" vertex="1">
          <mxGeometry x="-195" y="186" width="325" height="185" as="geometry" />
        </mxCell>
        <mxCell id="C4AMaPXMwdx1v8CpoTr9-2" value="R2" style="text;strokeColor=none;align=center;fillColor=none;html=1;verticalAlign=middle;whiteSpace=wrap;rounded=0;fontSize=16;labelBackgroundColor=none;" parent="1" vertex="1">
          <mxGeometry x="-195" y="156" width="60" height="30" as="geometry" />
        </mxCell>
        <mxCell id="C4AMaPXMwdx1v8CpoTr9-3" value="Kasir Area" style="text;strokeColor=none;align=center;fillColor=none;html=1;verticalAlign=middle;whiteSpace=wrap;rounded=0;fontSize=16;labelBackgroundColor=none;" parent="1" vertex="1">
          <mxGeometry x="-86.75" y="134" width="108.5" height="52" as="geometry" />
        </mxCell>
        <mxCell id="C4AMaPXMwdx1v8CpoTr9-5" value="" style="whiteSpace=wrap;html=1;labelBackgroundColor=none;fillColor=#dae8fc;strokeColor=#6c8ebf;" parent="1" vertex="1">
          <mxGeometry x="-195" y="248.5" width="36" height="60" as="geometry" />
        </mxCell>
        <mxCell id="C4AMaPXMwdx1v8CpoTr9-6" value="Mading" style="text;strokeColor=none;align=center;fillColor=none;html=1;verticalAlign=middle;whiteSpace=wrap;rounded=0;fontSize=12;rotation=-90;labelBackgroundColor=none;" parent="1" vertex="1">
          <mxGeometry x="-207" y="264" width="60" height="25" as="geometry" />
        </mxCell>
        <mxCell id="C4AMaPXMwdx1v8CpoTr9-7" value="" style="whiteSpace=wrap;html=1;labelBackgroundColor=none;fillColor=#dae8fc;strokeColor=#6c8ebf;" parent="1" vertex="1">
          <mxGeometry x="-92.5" y="335" width="120" height="36" as="geometry" />
        </mxCell>
        <mxCell id="C4AMaPXMwdx1v8CpoTr9-8" value="Papan Tulis&amp;nbsp;" style="text;strokeColor=none;align=center;fillColor=none;html=1;verticalAlign=middle;whiteSpace=wrap;rounded=0;fontSize=16;labelBackgroundColor=none;" parent="1" vertex="1">
          <mxGeometry x="-78.44" y="338.5" width="91.88" height="29" as="geometry" />
        </mxCell>
        <mxCell id="C4AMaPXMwdx1v8CpoTr9-10" value="" style="whiteSpace=wrap;html=1;rotation=-90;labelBackgroundColor=none;fillColor=#dae8fc;strokeColor=#6c8ebf;" parent="1" vertex="1">
          <mxGeometry x="59.5" y="248.5" width="81" height="60" as="geometry" />
        </mxCell>
        <mxCell id="C4AMaPXMwdx1v8CpoTr9-13" value="" style="whiteSpace=wrap;html=1;labelBackgroundColor=none;fillColor=#f8cecc;strokeColor=#b85450;" parent="1" vertex="1">
          <mxGeometry x="113" y="242" width="13" height="15" as="geometry" />
        </mxCell>
        <mxCell id="C4AMaPXMwdx1v8CpoTr9-15" value="" style="whiteSpace=wrap;html=1;labelBackgroundColor=none;fillColor=#f8cecc;strokeColor=#b85450;" parent="1" vertex="1">
          <mxGeometry x="113" y="299" width="13" height="15" as="geometry" />
        </mxCell>
        <mxCell id="C4AMaPXMwdx1v8CpoTr9-16" value="" style="whiteSpace=wrap;html=1;labelBackgroundColor=none;fillColor=#f8cecc;strokeColor=#b85450;" parent="1" vertex="1">
          <mxGeometry x="73" y="271" width="13" height="15" as="geometry" />
        </mxCell>
        <mxCell id="C4AMaPXMwdx1v8CpoTr9-17" value="Pc 1" style="text;strokeColor=none;align=center;fillColor=none;html=1;verticalAlign=middle;whiteSpace=wrap;rounded=0;fontSize=5;rotation=-90;labelBackgroundColor=none;" parent="1" vertex="1">
          <mxGeometry x="70.5" y="274.25" width="18" height="8.5" as="geometry" />
        </mxCell>
        <mxCell id="C4AMaPXMwdx1v8CpoTr9-18" value="Pc 2" style="text;strokeColor=none;align=center;fillColor=none;html=1;verticalAlign=middle;whiteSpace=wrap;rounded=0;fontSize=5;rotation=-90;labelBackgroundColor=none;" parent="1" vertex="1">
          <mxGeometry x="110.5" y="302.25" width="18" height="8.5" as="geometry" />
        </mxCell>
        <mxCell id="C4AMaPXMwdx1v8CpoTr9-19" value="Pc 3" style="text;strokeColor=none;align=center;fillColor=none;html=1;verticalAlign=middle;whiteSpace=wrap;rounded=0;fontSize=5;rotation=-90;labelBackgroundColor=none;" parent="1" vertex="1">
          <mxGeometry x="110.5" y="245.13" width="18" height="8.75" as="geometry" />
        </mxCell>
        <mxCell id="C4AMaPXMwdx1v8CpoTr9-20" value="Operator&amp;nbsp;" style="text;strokeColor=none;align=center;fillColor=none;html=1;verticalAlign=middle;whiteSpace=wrap;rounded=0;fontSize=7;rotation=-90;labelBackgroundColor=none;" parent="1" vertex="1">
          <mxGeometry x="73" y="264" width="60" height="30" as="geometry" />
        </mxCell>
        <mxCell id="Oc3P2kRP-ZX3fHC90jkk-1" value="" style="whiteSpace=wrap;html=1;labelBackgroundColor=none;fillColor=#dae8fc;strokeColor=#6c8ebf;" vertex="1" parent="1">
          <mxGeometry x="130" y="319" width="27" height="16" as="geometry" />
        </mxCell>
        <mxCell id="Oc3P2kRP-ZX3fHC90jkk-2" value="Buku Tamu" style="text;strokeColor=none;align=center;fillColor=none;html=1;verticalAlign=middle;whiteSpace=wrap;rounded=0;fontSize=6;labelBackgroundColor=none;" vertex="1" parent="1">
          <mxGeometry x="131.75" y="319" width="23.5" height="15" as="geometry" />
        </mxCell>
        <mxCell id="Oc3P2kRP-ZX3fHC90jkk-3" value="" style="whiteSpace=wrap;html=1;labelBackgroundColor=none;fillColor=#dae8fc;strokeColor=#6c8ebf;" vertex="1" parent="1">
          <mxGeometry x="130" y="335" width="50" height="36" as="geometry" />
        </mxCell>
        <mxCell id="Oc3P2kRP-ZX3fHC90jkk-4" value="Pintu Masuk" style="text;strokeColor=none;align=center;fillColor=none;html=1;verticalAlign=middle;whiteSpace=wrap;rounded=0;fontSize=7;labelBackgroundColor=none;" vertex="1" parent="1">
          <mxGeometry x="125" y="337.5" width="60" height="30" as="geometry" />
        </mxCell>
      </root>
    </mxGraphModel>
  </diagram>
</mxfile>
